<?xml version="1.0" encoding="UTF-8" standalone="no"?>
<!-- Created with Inkscape (http://www.inkscape.org/) -->

<svg
   xmlns:dc="http://purl.org/dc/elements/1.1/"
   xmlns:cc="http://creativecommons.org/ns#"
   xmlns:rdf="http://www.w3.org/1999/02/22-rdf-syntax-ns#"
   xmlns:svg="http://www.w3.org/2000/svg"
   xmlns="http://www.w3.org/2000/svg"
   xmlns:xlink="http://www.w3.org/1999/xlink"
   xmlns:sodipodi="http://sodipodi.sourceforge.net/DTD/sodipodi-0.dtd"
   xmlns:inkscape="http://www.inkscape.org/namespaces/inkscape"
   id="svg2"
   version="1.1"
   inkscape:version="0.91 r13725"
   xml:space="preserve"
   width="1530"
   height="990"
   viewBox="0 0 1530 990"
   sodipodi:docname="Logo Cuantum tricolor.svg"><metadata
     id="metadata8"><rdf:RDF><cc:Work
         rdf:about=""><dc:format>image/svg+xml</dc:format><dc:type
           rdf:resource="http://purl.org/dc/dcmitype/StillImage" /><dc:title /></cc:Work></rdf:RDF></metadata><defs
     id="defs6"><clipPath
       clipPathUnits="userSpaceOnUse"
       id="clipPath28"><path
         d="m 261.269,568.793 c -2.211,-4.144 -0.506,-9.293 3.735,-11.311 l 0,0 C 383.402,501.124 333.655,427.164 326.18,417.17 l 0,0 c 62.796,81.786 -26.517,139.863 -53.664,154.953 l 0,0 c -1.262,0.702 -2.628,1.034 -3.975,1.034 l 0,0 c -2.939,0 -5.788,-1.583 -7.272,-4.364 m -58.089,-13.378 -0.318,-1.928 c -0.766,-4.645 2.516,-8.98 7.192,-9.519 l 0,0 C 356.357,527.111 330.147,430.787 325.822,417.545 l 0,0 C 363.248,527.437 245.563,556.337 212.755,562.18 l 0,0 c -0.491,0.087 -0.978,0.129 -1.458,0.129 l 0,0 c -3.955,0 -7.45,-2.853 -8.117,-6.894 m -52.818,-31.254 c -4.498,-0.845 -7.441,-5.19 -6.557,-9.681 l 0,0 0.782,-3.981 c 0.908,-4.618 5.503,-7.542 10.068,-6.397 l 0,0 c 159.793,40.063 169.959,-70.917 170.602,-86.319 l 0,0 c -2.755,93.439 -73.732,110.922 -126.47,110.919 l 0,0 c -20.684,-10e-4 -38.574,-2.691 -48.425,-4.541 m -51.22,-84.395 c -3.672,-2.709 -4.433,-7.885 -1.706,-11.542 l 0,0 3.713,-4.981 c 2.818,-3.78 8.236,-4.427 11.859,-1.41 l 0,0 C 253.3,538.62 316.429,432.815 324.424,417.762 l 0,0 c -27.258,52.892 -65.067,69.771 -102.263,69.768 l 0,0 C 168.96,487.527 117.033,452.967 99.142,439.766 m -8.769,-99.117 c -2.258,-3.949 -0.869,-8.981 3.086,-11.23 l 0,0 7.063,-4.017 c 4.098,-2.331 9.328,-0.755 11.429,3.466 l 0,0 c 88.392,177.577 197.196,99.996 211.721,88.505 l 0,0 c -30.808,25.004 -59.635,34.715 -85.866,34.713 l 0,0 C 159.929,452.08 105.089,366.394 90.373,340.649 m 30.089,-91.721 c -0.657,-4.502 2.459,-8.677 6.962,-9.334 l 0,0 9.768,-1.424 c 4.695,-0.684 8.974,2.732 9.393,7.457 l 0,0 c 18.793,211.943 157.633,176.905 176.578,171.106 l 0,0 c -20.059,6.413 -38.155,9.264 -54.508,9.262 l 0,0 C 153.605,425.979 125.686,284.724 120.462,248.928 M 325.3,416.043 c -0.031,0.067 -0.322,0.676 -0.876,1.719 l 0,0 c 0.292,-0.567 0.586,-1.144 0.876,-1.72 l 0,0 c 0,0 0,-0.003 0,-0.003 l 0,0 c -0.043,0.038 -0.601,0.521 -1.628,1.334 l 0,0 c 0.54,-0.438 1.087,-0.887 1.628,-1.334 l 0,0 c 0,0 0,-10e-4 0,-10e-4 l 0,0 c -0.042,0.015 -0.784,0.28 -2.137,0.695 l 0,0 c 0.711,-0.228 1.421,-0.458 2.137,-0.695 l 0,0 c 0,0 0,-0.002 0,-0.002 l 0,0 c 0,0 0,0 0,0 l 0,0 c -0.033,0.002 -0.827,0.049 -2.259,0.067 l 0,0 c 0.747,-0.019 1.505,-0.041 2.259,-0.067 l 0,0 c -0.053,-0.015 -0.815,-0.233 -2.155,-0.684 l 0,0 c 0.71,0.229 1.435,0.459 2.155,0.684 l 0,0 c 0,0 0,0 0,0 l 0,0 c 0,0 10e-4,-0.003 10e-4,-0.003 l 0,0 c 0,0 0,10e-4 0,0.002 l 0,0 c 0,0 0,0 0,10e-4 l 0,0 c 0,0 0,0 0,0 l 0,0 c 0,0 0,0 0,0 l 0,0 c 0,0 0,0 0.001,0 l 0,0 c 0,0 10e-4,10e-4 10e-4,10e-4 l 0,0 c 0,0 -10e-4,-10e-4 -10e-4,-10e-4 l 0,0 c 0,10e-4 0,10e-4 0,10e-4 l 0,0 c 0,0 10e-4,0 10e-4,0 l 0,0 c 0,0 0,0 -10e-4,0 l 0,0 c 10e-4,0 10e-4,0.001 10e-4,0.001 l 0,0 c 0,0 0,-0.001 0,-0.001 l 0,0 c 0,0 0,0 0,0.001 l 0,0 c 0.029,0.035 0.347,0.423 0.877,1.132 l 0,0 c -0.288,-0.376 -0.582,-0.755 -0.877,-1.132 l 0,0 c -10e-4,0 -10e-4,10e-4 -10e-4,10e-4 l 0,0 c 0.018,0.049 0.215,0.57 0.52,1.506 l 0,0 c -0.169,-0.498 -0.344,-1.003 -0.52,-1.505 l 0,0 c -0.001,0 -0.001,10e-4 -0.001,0.002 l 0,0 c 0,0.08 0,0.687 -0.044,1.741 l 0,0 c 0.017,-0.583 0.031,-1.152 0.043,-1.74 m 10e-4,-0.001 c 0,0 0.001,-0.003 0.001,-0.003 l 0,0 c 0,0 -0.001,-10e-4 -0.001,-10e-4 l 0,0 c 0,0 0,10e-4 0,10e-4 l 0,0 c 0,0.001 0,0.002 0,0.003 m 0.001,-0.003 c 0,0 10e-4,-10e-4 10e-4,-10e-4 l 0,0 c 0,0 -10e-4,-0.001 -10e-4,-0.001 l 0,0 c 0,0 0,0.001 0,0.001 l 0,0 c 0,0 0,0 0,0 l 0,0 c 0,0 0,0 0,0 l 0,0 c 0,0 0,0 -0.001,0 l 0,0 c 0.001,10e-4 0.001,10e-4 0.001,10e-4 m -0.001,0 c 0,0 0,-10e-4 0,-10e-4 l 0,0 c 0,0 0,0 0,0 l 0,0 c 0,0 0,0 0,0 l 0,0 c 0,0 0,10e-4 0,10e-4 m 0,-10e-4 c 0,0 0,0 0,0 l 0,0 c 0,0 0,-0.002 0,-0.002 l 0,0 c 0,0 0,0 0,0 l 0,0 c 0,10e-4 0,10e-4 0,0.002 m 0,0 c 0,0 0.001,0 0.001,0 l 0,0 c 0,0 0,0 -0.001,0 l 0,0 c 0,0 0,0 0,0 m 0,0 c 0,0 0.001,0 0.001,0 l 0,0 c 0,0 0,-0.001 0,-0.001 l 0,0 c 0,0 0,-10e-4 0,-10e-4 l 0,0 c -0.001,0 -0.001,0 -0.001,0 l 0,0 c 0,0 0,10e-4 0,0.002 m 0,-0.002 c 0,0 0,0 0,0 l 0,0 c 0,0 0,0 0,0 l 0,0 c 0,0 0,0 0,0 l 0,0 c 0,0 0,0 0,0 l 0,0 c 0,0 0,-10e-4 0,-10e-4 l 0,0 c 0,0 0,0 0,10e-4 l 0,0 c 0,0 0,0 0,0 l 0,0 c 0,0 0,0 0,0 l 0,0 c 0,0 0,0 0,0 l 0,0 c 0,0 0,0 0,0 l 0,0 c 0,0 0,0 0,0 l 0,0 c 0,0 0,0 0,0 l 0,0 c 0,0 0,0 0,0 l 0,0 c 0,0 0,0 0,0 l 0,0 c 0,0 0,0 0,0 l 0,0 c 0,0 0,0 0,0 l 0,0 c 0,0 0,0 0,0 M 175.566,198.174 c 0.632,-4.506 4.794,-7.639 9.299,-7.006 l 0,0 9.777,1.374 c 4.698,0.659 7.847,5.138 6.924,9.791 l 0,0 c -41.413,208.678 101.635,214.02 121.475,213.77 l 0,0 c -1.96,0.049 -3.872,0.073 -5.783,0.073 l 0,0 C 154.263,416.166 169.889,238.616 175.566,198.174 m 149.736,217.864 c 0,0 0,0 0,0 l 0,0 c 0,0 0,0 0,0 l 0,0 c 0,0 0,0 0,0 m 10e-4,-0.001 c 0,0 0,0 0,0 l 0,0 c 0,0 0,0 0,0 m -0.002,-10e-4 c 0,0 0,0 0,0 l 0,0 c 0,0 0,0 0,0 l 0,0 c 0,0 0,0 0,0 l 0,0 c 0,0 0,0 0,0 m 0,0 c 0,0 0,0 0,0 l 0,0 c 0,0 0,0 0,0 l 0,0 c 0,0 0,0 0,0 l 0,0 c 0,0 0,0 0,0 m 0.003,-10e-4 c 0,0 -0.202,-0.524 -0.525,-1.507 l 0,0 c 0.171,0.498 0.348,1.005 0.525,1.507 l 0,0 c 0,0 0,0 0,0 m -0.003,-0.002 c 0,0 0,10e-4 0,10e-4 l 0,0 c 0,0 0,0 0,-10e-4 l 0,0 c -0.053,-0.032 -0.685,-0.415 -1.775,-1.147 l 0,0 c 0.59,0.385 1.175,0.763 1.774,1.147 l 0,0 c 0,-0.001 -0.001,-0.002 -0.002,-0.004 l 0,0 c -0.045,-0.041 -0.549,-0.501 -1.404,-1.354 l 0,0 c 0.464,0.451 0.931,0.902 1.404,1.354 l 0,0 c -0.039,-0.057 -0.388,-0.566 -0.961,-1.484 l 0,0 c 0.318,0.497 0.635,0.985 0.961,1.484 l 0,0 c 0,0 0.003,0.003 0.003,0.003 l 0,0 c 0,0 -10e-4,-10e-4 -0.003,-0.002 l 0,0 c 0,0 0.002,0.003 0.002,0.003 l 0,0 c 0,0 0.004,0.002 0.004,0.002 l 0,0 c 0,0 -10e-4,-0.001 -0.003,-0.002 M 255.952,160.938 c 2.085,-4.044 7.049,-5.626 11.092,-3.54 l 0,0 8.774,4.526 c 4.216,2.175 5.708,7.443 3.3,11.53 l 0,0 c -108.016,183.254 25.19,235.569 44.027,241.898 l 0,0 C 162.072,363.469 237.014,197.66 255.952,160.938 m 69.269,8.366 c 3.07,-3.357 8.286,-3.574 11.636,-0.496 l 0,0 5.985,5.496 c 3.473,3.189 3.572,8.65 0.197,11.941 l 0,0 c -142.003,138.443 -34.93,218.301 -19.513,228.641 l 0,0 C 191.681,328.827 298.474,198.56 325.221,169.304 m 43.359,23.481 c 3.662,-2.721 8.834,-1.94 11.538,1.736 l 0,0 3.68,5.004 c 2.793,3.798 1.832,9.17 -2.11,11.755 l 0,0 C 229.115,311.361 311.777,402.579 323.894,414.675 l 0,0 C 220.301,313.82 338.258,215.319 368.58,192.785 m 40.145,35.27 c 4.19,-1.84 9.071,0.088 10.877,4.294 l 0,0 1.599,3.728 c 1.856,4.325 -0.288,9.332 -4.703,10.963 l 0,0 C 262.046,304.092 316.133,401.384 324.337,414.545 l 0,0 c -70.204,-109.553 51.812,-172.182 84.388,-186.49 m 28.741,41.541 c 4.52,-0.817 8.832,2.209 9.592,6.739 l 0,0 0.324,1.928 c 0.778,4.642 -2.493,8.986 -7.167,9.537 l 0,0 C 293.957,305.04 320.419,401.298 324.779,414.528 l 0,0 C 287.065,304.734 404.674,275.524 437.466,269.596"
         id="path30"
         inkscape:connector-curvature="0" /></clipPath><radialGradient
       fx="0"
       fy="0"
       cx="0"
       cy="0"
       r="1"
       gradientUnits="userSpaceOnUse"
       gradientTransform="matrix(170.14366,133.38597,133.38597,-170.14366,166.66362,371.18323)"
       spreadMethod="pad"
       id="radialGradient36"><stop
         style="stop-opacity:1;stop-color:#ec008c"
         offset="0"
         id="stop38" /><stop
         style="stop-opacity:1;stop-color:#ec008c"
         offset="0.26148"
         id="stop40" /><stop
         id="stop4316"
         offset="0.60510105"
         style="stop-color:#ffe680;stop-opacity:1" /><stop
         style="stop-opacity:1;stop-color:#00afb6"
         offset="0.800462"
         id="stop42" /><stop
         style="stop-opacity:1;stop-color:#00afb6"
         offset="1"
         id="stop44" /></radialGradient><radialGradient
       inkscape:collect="always"
       xlink:href="#radialGradient36-0"
       id="radialGradient4173-0"
       cx="-129.9474"
       cy="-202.88956"
       fx="-129.9474"
       fy="-202.88956"
       r="132.79922"
       gradientTransform="matrix(1.25,0,0,1.3596225,328.43329,456.41003)"
       gradientUnits="userSpaceOnUse" /><radialGradient
       fx="0"
       fy="0"
       cx="0"
       cy="0"
       r="1"
       gradientUnits="userSpaceOnUse"
       gradientTransform="matrix(170.14366,133.38597,133.38597,-170.14366,166.66362,371.18323)"
       spreadMethod="pad"
       id="radialGradient36-0"><stop
         style="stop-opacity:1;stop-color:#ec008c"
         offset="0"
         id="stop38-8" /><stop
         style="stop-opacity:1;stop-color:#ec008c"
         offset="0.26148"
         id="stop40-7" /><stop
         style="stop-opacity:1;stop-color:#00afb6"
         offset="0.800462"
         id="stop42-3" /><stop
         style="stop-opacity:1;stop-color:#00afb6"
         offset="1"
         id="stop44-6" /></radialGradient><radialGradient
       inkscape:collect="always"
       xlink:href="#radialGradient36"
       id="radialGradient4226"
       gradientUnits="userSpaceOnUse"
       gradientTransform="matrix(1.4798227,0.053429,-0.06523974,1.8069446,-56.785063,-237.80642)"
       cx="160.40952"
       cy="325.31"
       fx="160.40952"
       fy="325.31"
       r="132.79922" /></defs><sodipodi:namedview
     pagecolor="#ffffff"
     bordercolor="#666666"
     borderopacity="1"
     objecttolerance="10"
     gridtolerance="10"
     guidetolerance="10"
     inkscape:pageopacity="0"
     inkscape:pageshadow="2"
     inkscape:window-width="1678"
     inkscape:window-height="1007"
     id="namedview4"
     showgrid="false"
     inkscape:zoom="0.65257175"
     inkscape:cx="574.83738"
     inkscape:cy="410.90879"
     inkscape:window-x="1532"
     inkscape:window-y="0"
     inkscape:window-maximized="0"
     inkscape:current-layer="g10"
     showguides="true"
     inkscape:guide-bbox="true"><sodipodi:guide
       position="939.36031,318.7389"
       orientation="0,1"
       id="guide4342" /></sodipodi:namedview><g
     id="g10"
     inkscape:groupmode="layer"
     inkscape:label="CUANTUM NUEVOS 4"
     transform="matrix(1.25,0,0,-1.25,0,990)"><g
       transform="scale(1,-1)"
       style="font-variant:normal;font-weight:normal;font-stretch:normal;font-size:71.84369659px;font-family:AvantGarde;-inkscape-font-specification:AvantGarde-Book;writing-mode:lr-tb;fill:#00afb6;fill-opacity:1;fill-rule:nonzero;stroke:none"
       id="text4318"><path
         d="m 501.07357,-308.12247 8.20871,0 19.29396,45.39343 0,0 19.29396,-45.39343 8.2087,0 0,53.32149 -5.33215,0 0,-47.7087 0,0 -19.9254,47.7087 -4.49023,0 -19.9254,-47.7087 0,0 0,47.7087 -5.33215,0 0,-53.32149 z"
         style=""
         id="path3476" /><path
         d="m 566.677,-254.80098 0,-53.32149 28.90586,0 0,4.80595 -23.57371,0 0,19.25888 22.73179,0 0,4.80595 -22.73179,0 0,19.64476 23.57371,0 0,4.80595 -28.90586,0 z m 13.78641,-57.53108 0,0 0,0 z m 0.66652,57.53108 0,0 0,0 z m -19.50444,-54.16341 0,0 0,0 z"
         style=""
         id="path3478" /><path
         d="m 605.46582,-254.80098 0,-53.32149 15.54041,0 q 14.24245,0 21.92495,7.89298 7.71759,7.85791 7.71759,18.97824 0,10.24334 -7.61235,18.34681 -7.57726,8.10346 -23.46847,8.10346 l -14.10213,0 z m 5.33215,-4.80595 8.10346,0 q 14.94405,0 20.66208,-6.63011 5.75311,-6.6301 5.75311,-14.87389 0,-9.54174 -6.34947,-15.85613 -6.31439,-6.34946 -19.53952,-6.34946 l -8.62966,0 0,43.70959 z m 14.06705,-52.72513 0,0 0,0 z m -24.73135,3.36767 0,0 0,0 z"
         style=""
         id="path3480" /></g><g
       transform="matrix(1,0,0,-1,335.9126,324.1807)"
       style="font-variant:normal;font-weight:normal;font-stretch:normal;font-size:150.16529846px;font-family:'Big John';-inkscape-font-specification:BigJohn;writing-mode:lr-tb;fill:#6d6e71;fill-opacity:1;fill-rule:nonzero;stroke:none"
       id="text12"><path
         d="M 104.66521,-96.255956 C 94.453973,-106.4672 80.4886,-112.62397 65.021574,-112.62397 c -31.084217,0 -56.3119867,25.227766 -56.3119867,56.311983 C 8.7095873,-25.22777 33.937357,0 65.021574,0 80.638765,0 94.754303,-6.4571078 104.96554,-16.668348 L 83.942402,-37.391159 c -4.655124,4.805289 -11.262398,7.508265 -18.920828,7.508265 -15.31686,0 -26.429092,-11.112232 -26.429092,-26.429093 0,-15.31686 11.112232,-26.429092 26.429092,-26.429092 7.65843,0 14.265704,2.702975 18.920828,7.358099 l 20.722808,-20.872976 z"
         style=""
         id="path3461" /><path
         d="m 154.0696,-112.62397 -29.73273,0 0,68.175042 C 124.33687,-19.671654 144.00852,0 168.7858,0 c 24.47694,0 44.44892,-19.671654 44.44892,-44.448928 l 0,-68.175042 -29.73272,0 0,67.724546 c 0,8.108926 -6.60728,14.716199 -14.7162,14.716199 -8.10893,0 -14.7162,-6.607273 -14.7162,-14.716199 l 0,-67.724546 z"
         style=""
         id="path3463" /><path
         d="m 253.32886,0 6.75744,-14.716199 46.10074,0 L 313.09465,0 l 29.58256,0 -53.00835,-112.62397 -13.36471,0 L 223.74629,0 253.32886,0 Z m 29.88289,-64.420913 11.41256,24.777274 -22.97529,0 11.56273,-24.777274 z"
         style=""
         id="path3465" /><path
         d="m 452.59822,0 0,-112.62397 -29.58256,0 0,53.158512 -53.30868,-53.158512 -12.01323,0 0,112.62397 29.58257,0 0,-53.308681 L 440.43483,0 452.59822,0 Z"
         style=""
         id="path3467" /><path
         d="m 472.87054,-83.341741 29.28224,0 0,83.341741 29.58256,0 0,-83.341741 29.8829,0 0,-29.432399 -88.7477,0 0,29.432399 z"
         style=""
         id="path3469" /><path
         d="m 611.62324,-112.62397 -29.73273,0 0,68.175042 C 581.89051,-19.671654 601.56216,0 626.33944,0 c 24.47694,0 44.44893,-19.671654 44.44893,-44.448928 l 0,-68.175042 -29.73273,0 0,67.724546 c 0,8.108926 -6.60728,14.716199 -14.7162,14.716199 -8.10893,0 -14.7162,-6.607273 -14.7162,-14.716199 l 0,-67.724546 z"
         style=""
         id="path3471" /><path
         d="m 706.67791,-112.62397 -13.36471,0 0,112.62397 29.73273,0 0,-57.663475 29.58256,26.729424 29.4324,-26.879589 0,57.81364 29.73273,0 0,-112.62397 -13.36471,0 -45.80042,41.745949 -45.95058,-41.745949 z"
         style=""
         id="path3473" /></g><g
       clip-path="url(#clipPath28)"
       id="g26"
       style="fill:url(#radialGradient4226);fill-opacity:1;color:#000000;clip-rule:nonzero;display:inline;overflow:visible;visibility:visible;opacity:1;isolation:auto;mix-blend-mode:normal;color-interpolation:sRGB;color-interpolation-filters:linearRGB;solid-color:#000000;solid-opacity:1;fill-rule:evenodd;stroke:none;stroke-width:0.80000001px;stroke-linecap:butt;stroke-linejoin:miter;stroke-miterlimit:4;stroke-dasharray:none;stroke-dashoffset:0;stroke-opacity:1;filter-blend-mode:normal;filter-gaussianBlur-deviation:0;color-rendering:auto;image-rendering:auto;shape-rendering:auto;text-rendering:auto;enable-background:accumulate"><g
         id="g32"
         style="fill:url(#radialGradient4226);fill-opacity:1.0;color:#000000;clip-rule:nonzero;display:inline;overflow:visible;visibility:visible;isolation:auto;mix-blend-mode:normal;color-interpolation:sRGB;color-interpolation-filters:linearRGB;solid-color:#000000;solid-opacity:1;fill-rule:evenodd;stroke:none;stroke-width:0.80000001px;stroke-linecap:butt;stroke-linejoin:miter;stroke-miterlimit:4;stroke-dasharray:none;stroke-dashoffset:0;stroke-opacity:1;filter-blend-mode:normal;filter-gaussianBlur-deviation:0;color-rendering:auto;image-rendering:auto;shape-rendering:auto;text-rendering:auto;enable-background:accumulate"><g
           id="g34"
           style="fill:url(#radialGradient4226);fill-opacity:1.0;color:#000000;clip-rule:nonzero;display:inline;overflow:visible;visibility:visible;isolation:auto;mix-blend-mode:normal;color-interpolation:sRGB;color-interpolation-filters:linearRGB;solid-color:#000000;solid-opacity:1;fill-rule:evenodd;stroke:none;stroke-width:0.80000001px;stroke-linecap:butt;stroke-linejoin:miter;stroke-miterlimit:4;stroke-dasharray:none;stroke-dashoffset:0;stroke-opacity:1;filter-blend-mode:normal;filter-gaussianBlur-deviation:0;color-rendering:auto;image-rendering:auto;shape-rendering:auto;text-rendering:auto;enable-background:accumulate"><path
             inkscape:connector-curvature="0"
             id="path46"
             style="fill:url(#radialGradient4226);stroke:none;fill-opacity:1.0;color:#000000;clip-rule:nonzero;display:inline;overflow:visible;visibility:visible;isolation:auto;mix-blend-mode:normal;color-interpolation:sRGB;color-interpolation-filters:linearRGB;solid-color:#000000;solid-opacity:1;fill-rule:evenodd;stroke-width:0.80000001px;stroke-linecap:butt;stroke-linejoin:miter;stroke-miterlimit:4;stroke-dasharray:none;stroke-dashoffset:0;stroke-opacity:1;filter-blend-mode:normal;filter-gaussianBlur-deviation:0;color-rendering:auto;image-rendering:auto;shape-rendering:auto;text-rendering:auto;enable-background:accumulate"
             d="m 261.269,568.793 c -2.211,-4.144 -0.506,-9.293 3.735,-11.311 l 0,0 C 383.402,501.124 333.655,427.164 326.18,417.17 l 0,0 c 62.796,81.786 -26.517,139.863 -53.664,154.953 l 0,0 c -1.262,0.702 -2.628,1.034 -3.975,1.034 l 0,0 c -2.939,0 -5.788,-1.583 -7.272,-4.364 m -58.089,-13.378 -0.318,-1.928 c -0.766,-4.645 2.516,-8.98 7.192,-9.519 l 0,0 C 356.357,527.111 330.147,430.787 325.822,417.545 l 0,0 C 363.248,527.437 245.563,556.337 212.755,562.18 l 0,0 c -0.491,0.087 -0.978,0.129 -1.458,0.129 l 0,0 c -3.955,0 -7.45,-2.853 -8.117,-6.894 m -52.818,-31.254 c -4.498,-0.845 -7.441,-5.19 -6.557,-9.681 l 0,0 0.782,-3.981 c 0.908,-4.618 5.503,-7.542 10.068,-6.397 l 0,0 c 159.793,40.063 169.959,-70.917 170.602,-86.319 l 0,0 c -2.755,93.439 -73.732,110.922 -126.47,110.919 l 0,0 c -20.684,-10e-4 -38.574,-2.691 -48.425,-4.541 m -51.22,-84.395 c -3.672,-2.709 -4.433,-7.885 -1.706,-11.542 l 0,0 3.713,-4.981 c 2.818,-3.78 8.236,-4.427 11.859,-1.41 l 0,0 C 253.3,538.62 316.429,432.815 324.424,417.762 l 0,0 c -27.258,52.892 -65.067,69.771 -102.263,69.768 l 0,0 C 168.96,487.527 117.033,452.967 99.142,439.766 m -8.769,-99.117 c -2.258,-3.949 -0.869,-8.981 3.086,-11.23 l 0,0 7.063,-4.017 c 4.098,-2.331 9.328,-0.755 11.429,3.466 l 0,0 c 88.392,177.577 197.196,99.996 211.721,88.505 l 0,0 c -30.808,25.004 -59.635,34.715 -85.866,34.713 l 0,0 C 159.929,452.08 105.089,366.394 90.373,340.649 m 30.089,-91.721 c -0.657,-4.502 2.459,-8.677 6.962,-9.334 l 0,0 9.768,-1.424 c 4.695,-0.684 8.974,2.732 9.393,7.457 l 0,0 c 18.793,211.943 157.633,176.905 176.578,171.106 l 0,0 c -20.059,6.413 -38.155,9.264 -54.508,9.262 l 0,0 C 153.605,425.979 125.686,284.724 120.462,248.928 M 325.3,416.043 c -0.031,0.067 -0.322,0.676 -0.876,1.719 l 0,0 c 0.292,-0.567 0.586,-1.144 0.876,-1.72 l 0,0 c 0,0 0,-0.003 0,-0.003 l 0,0 c -0.043,0.038 -0.601,0.521 -1.628,1.334 l 0,0 c 0.54,-0.438 1.087,-0.887 1.628,-1.334 l 0,0 c 0,0 0,-10e-4 0,-10e-4 l 0,0 c -0.042,0.015 -0.784,0.28 -2.137,0.695 l 0,0 c 0.711,-0.228 1.421,-0.458 2.137,-0.695 l 0,0 c 0,0 0,-0.002 0,-0.002 l 0,0 c 0,0 0,0 0,0 l 0,0 c -0.033,0.002 -0.827,0.049 -2.259,0.067 l 0,0 c 0.747,-0.019 1.505,-0.041 2.259,-0.067 l 0,0 c -0.053,-0.015 -0.815,-0.233 -2.155,-0.684 l 0,0 c 0.71,0.229 1.435,0.459 2.155,0.684 l 0,0 c 0,0 0,0 0,0 l 0,0 c 0,0 10e-4,-0.003 10e-4,-0.003 l 0,0 c 0,0 0,10e-4 0,0.002 l 0,0 c 0,0 0,0 0,10e-4 l 0,0 c 0,0 0,0 0,0 l 0,0 c 0,0 0,0 0,0 l 0,0 c 0,0 0,0 0.001,0 l 0,0 c 0,0 10e-4,10e-4 10e-4,10e-4 l 0,0 c 0,0 -10e-4,-10e-4 -10e-4,-10e-4 l 0,0 c 0,10e-4 0,10e-4 0,10e-4 l 0,0 c 0,0 10e-4,0 10e-4,0 l 0,0 c 0,0 0,0 -10e-4,0 l 0,0 c 10e-4,0 10e-4,0.001 10e-4,0.001 l 0,0 c 0,0 0,-0.001 0,-0.001 l 0,0 c 0,0 0,0 0,0.001 l 0,0 c 0.029,0.035 0.347,0.423 0.877,1.132 l 0,0 c -0.288,-0.376 -0.582,-0.755 -0.877,-1.132 l 0,0 c -10e-4,0 -10e-4,10e-4 -10e-4,10e-4 l 0,0 c 0.018,0.049 0.215,0.57 0.52,1.506 l 0,0 c -0.169,-0.498 -0.344,-1.003 -0.52,-1.505 l 0,0 c -0.001,0 -0.001,10e-4 -0.001,0.002 l 0,0 c 0,0.08 0,0.687 -0.044,1.741 l 0,0 c 0.017,-0.583 0.031,-1.152 0.043,-1.74 m 10e-4,-0.001 c 0,0 0.001,-0.003 0.001,-0.003 l 0,0 c 0,0 -0.001,-10e-4 -0.001,-10e-4 l 0,0 c 0,0 0,10e-4 0,10e-4 l 0,0 c 0,0.001 0,0.002 0,0.003 m 0.001,-0.003 c 0,0 10e-4,-10e-4 10e-4,-10e-4 l 0,0 c 0,0 -10e-4,-0.001 -10e-4,-0.001 l 0,0 c 0,0 0,0.001 0,0.001 l 0,0 c 0,0 0,0 0,0 l 0,0 c 0,0 0,0 0,0 l 0,0 c 0,0 0,0 -0.001,0 l 0,0 c 0.001,10e-4 0.001,10e-4 0.001,10e-4 m -0.001,0 c 0,0 0,-10e-4 0,-10e-4 l 0,0 c 0,0 0,0 0,0 l 0,0 c 0,0 0,0 0,0 l 0,0 c 0,0 0,10e-4 0,10e-4 m 0,-10e-4 c 0,0 0,0 0,0 l 0,0 c 0,0 0,-0.002 0,-0.002 l 0,0 c 0,0 0,0 0,0 l 0,0 c 0,10e-4 0,10e-4 0,0.002 m 0,0 c 0,0 0.001,0 0.001,0 l 0,0 c 0,0 0,0 -0.001,0 l 0,0 c 0,0 0,0 0,0 m 0,0 c 0,0 0.001,0 0.001,0 l 0,0 c 0,0 0,-0.001 0,-0.001 l 0,0 c 0,0 0,-10e-4 0,-10e-4 l 0,0 c -0.001,0 -0.001,0 -0.001,0 l 0,0 c 0,0 0,10e-4 0,0.002 m 0,-0.002 c 0,0 0,0 0,0 l 0,0 c 0,0 0,0 0,0 l 0,0 c 0,0 0,0 0,0 l 0,0 c 0,0 0,0 0,0 l 0,0 c 0,0 0,-10e-4 0,-10e-4 l 0,0 c 0,0 0,0 0,10e-4 l 0,0 c 0,0 0,0 0,0 l 0,0 c 0,0 0,0 0,0 l 0,0 c 0,0 0,0 0,0 l 0,0 c 0,0 0,0 0,0 l 0,0 c 0,0 0,0 0,0 l 0,0 c 0,0 0,0 0,0 l 0,0 c 0,0 0,0 0,0 l 0,0 c 0,0 0,0 0,0 l 0,0 c 0,0 0,0 0,0 l 0,0 c 0,0 0,0 0,0 l 0,0 c 0,0 0,0 0,0 M 175.566,198.174 c 0.632,-4.506 4.794,-7.639 9.299,-7.006 l 0,0 9.777,1.374 c 4.698,0.659 7.847,5.138 6.924,9.791 l 0,0 c -41.413,208.678 101.635,214.02 121.475,213.77 l 0,0 c -1.96,0.049 -3.872,0.073 -5.783,0.073 l 0,0 C 154.263,416.166 169.889,238.616 175.566,198.174 m 149.736,217.864 c 0,0 0,0 0,0 l 0,0 c 0,0 0,0 0,0 l 0,0 c 0,0 0,0 0,0 m 10e-4,-0.001 c 0,0 0,0 0,0 l 0,0 c 0,0 0,0 0,0 m -0.002,-10e-4 c 0,0 0,0 0,0 l 0,0 c 0,0 0,0 0,0 l 0,0 c 0,0 0,0 0,0 l 0,0 c 0,0 0,0 0,0 m 0,0 c 0,0 0,0 0,0 l 0,0 c 0,0 0,0 0,0 l 0,0 c 0,0 0,0 0,0 l 0,0 c 0,0 0,0 0,0 m 0.003,-10e-4 c 0,0 -0.202,-0.524 -0.525,-1.507 l 0,0 c 0.171,0.498 0.348,1.005 0.525,1.507 l 0,0 c 0,0 0,0 0,0 m -0.003,-0.002 c 0,0 0,10e-4 0,10e-4 l 0,0 c 0,0 0,0 0,-10e-4 l 0,0 c -0.053,-0.032 -0.685,-0.415 -1.775,-1.147 l 0,0 c 0.59,0.385 1.175,0.763 1.774,1.147 l 0,0 c 0,-0.001 -0.001,-0.002 -0.002,-0.004 l 0,0 c -0.045,-0.041 -0.549,-0.501 -1.404,-1.354 l 0,0 c 0.464,0.451 0.931,0.902 1.404,1.354 l 0,0 c -0.039,-0.057 -0.388,-0.566 -0.961,-1.484 l 0,0 c 0.318,0.497 0.635,0.985 0.961,1.484 l 0,0 c 0,0 0.003,0.003 0.003,0.003 l 0,0 c 0,0 -10e-4,-10e-4 -0.003,-0.002 l 0,0 c 0,0 0.002,0.003 0.002,0.003 l 0,0 c 0,0 0.004,0.002 0.004,0.002 l 0,0 c 0,0 -10e-4,-0.001 -0.003,-0.002 M 255.952,160.938 c 2.085,-4.044 7.049,-5.626 11.092,-3.54 l 0,0 8.774,4.526 c 4.216,2.175 5.708,7.443 3.3,11.53 l 0,0 c -108.016,183.254 25.19,235.569 44.027,241.898 l 0,0 C 162.072,363.469 237.014,197.66 255.952,160.938 m 69.269,8.366 c 3.07,-3.357 8.286,-3.574 11.636,-0.496 l 0,0 5.985,5.496 c 3.473,3.189 3.572,8.65 0.197,11.941 l 0,0 c -142.003,138.443 -34.93,218.301 -19.513,228.641 l 0,0 C 191.681,328.827 298.474,198.56 325.221,169.304 m 43.359,23.481 c 3.662,-2.721 8.834,-1.94 11.538,1.736 l 0,0 3.68,5.004 c 2.793,3.798 1.832,9.17 -2.11,11.755 l 0,0 C 229.115,311.361 311.777,402.579 323.894,414.675 l 0,0 C 220.301,313.82 338.258,215.319 368.58,192.785 m 40.145,35.27 c 4.19,-1.84 9.071,0.088 10.877,4.294 l 0,0 1.599,3.728 c 1.856,4.325 -0.288,9.332 -4.703,10.963 l 0,0 C 262.046,304.092 316.133,401.384 324.337,414.545 l 0,0 c -70.204,-109.553 51.812,-172.182 84.388,-186.49 m 28.741,41.541 c 4.52,-0.817 8.832,2.209 9.592,6.739 l 0,0 0.324,1.928 c 0.778,4.642 -2.493,8.986 -7.167,9.537 l 0,0 C 293.957,305.04 320.419,401.298 324.779,414.528 l 0,0 C 287.065,304.734 404.674,275.524 437.466,269.596" /></g></g></g><g
       transform="matrix(1,0,0,-1,495.6011,255.6631)"
       style="font-variant:normal;font-weight:normal;font-stretch:normal;font-size:71.84369659px;font-family:AvantGarde;-inkscape-font-specification:AvantGarde-Book;writing-mode:lr-tb;fill:#ec008c;fill-opacity:1;fill-rule:nonzero;stroke:none"
       id="text4326"><path
         d="m 231.43943,-13.751333 5.96359,0 q -9.29618,14.59325132 -24.20515,14.59325132 -11.7167,0 -19.99556,-7.92806422 -8.27887,-7.9280641 -8.27887,-19.1536421 0,-11.857016 8.17363,-19.89032 8.2087,-8.033304 19.82016,-8.033304 7.54218,0 14.13721,4.034192 6.59503,4.034192 9.7873,10.559059 l 0,0 -5.96359,0 0,0 q -3.01687,-4.384991 -8.0333,-7.086146 -5.01643,-2.701154 -9.89254,-2.701154 -9.40142,0 -16.06661,6.770426 -6.63011,6.735347 -6.63011,16.277088 0,9.015542 6.80551,15.680728 6.84059,6.6651869 16.20693,6.6651869 10.4889,0 18.1714,-9.7873009 z m -17.92584,-43.779752 0,0 0,0 z M 210.46163,0 l 0,0 0,0 z"
         style=""
         id="path3483" /><path
         d="m 243.33236,-26.239788 q 0,-11.857016 8.24379,-19.89032 8.27886,-8.033304 19.96048,-8.033304 11.43606,0 19.82016,8.068384 8.3841,8.068384 8.3841,19.434281 0,11.190498 -8.3841,19.3641216 -8.3841,8.13854372 -19.82016,8.13854372 -11.68162,0 -19.96048,-8.06838392 -8.24379,-8.1034634 -8.24379,-19.0133224 z m 5.33215,-0.07016 q 0,9.015542 6.70027,15.680728 6.70027,6.6651869 16.17185,6.6651869 9.4365,0 16.13677,-6.6301069 6.73534,-6.665187 6.73534,-16.066608 0,-9.366341 -6.94582,-16.031528 -6.91075,-6.665186 -15.92629,-6.665186 -9.47158,0 -16.17185,6.770426 -6.70027,6.735347 -6.70027,16.277088 z m 22.87212,-31.221138 0,0 0,0 z"
         style=""
         id="path3485" /><path
         d="m 303.80008,-14.87389 5.33215,0 0,0 q 0,4.490231 2.94671,7.7175843 2.9818,3.1922736 7.99823,3.1922736 4.34991,0 7.64742,-2.8414743 3.29751,-2.8765543 3.29751,-7.9280646 0,-3.543073 -2.45559,-6.384547 -2.4556,-2.876554 -10.52398,-5.15675 -12.55861,-3.543072 -12.55861,-13.716252 0,-6.279308 4.34991,-10.20826 4.38499,-3.964032 10.76953,-3.964032 6.27931,0 10.45382,4.279752 4.17452,4.279751 4.17452,10.313499 l 0,0 -5.33215,0 0,0 q 0,-3.999112 -2.8064,-6.875666 -2.77131,-2.911634 -6.66518,-2.911634 -4.42008,0 -7.01599,2.771314 -2.59592,2.771314 -2.59592,6.630107 0,3.367673 2.31528,5.612789 2.35036,2.210035 9.75222,4.209591 13.47069,3.648313 13.47069,15.505329 0,6.5599471 -4.77087,11.0150982 -4.77087,4.45515112 -11.50621,4.45515112 -7.08615,0 -11.68162,-4.34991132 -4.59547,-4.3499113 -4.59547,-11.365897 l 0,0 z m 16.45249,-42.657195 0,0 0,0 z m 0,57.531085 0,0 0,0 z"
         style=""
         id="path3487" /></g><g
       transform="scale(1,-1)"
       style="font-variant:normal;font-weight:normal;font-stretch:normal;font-size:71.84369659px;font-family:AvantGarde;-inkscape-font-specification:AvantGarde-Book;writing-mode:lr-tb;fill:#6d6e71;fill-opacity:1;fill-rule:nonzero;stroke:none"
       id="text4336"><path
         d="m 655.88745,-280.7577 19.64476,0 0,4.80595 -19.64476,0 0,-4.80595 z"
         style=""
         id="path3490" /></g></g></svg>