<?xml version="1.0" encoding="UTF-8" standalone="no"?>
<!-- Generator: Adobe Illustrator 16.0.0, SVG Export Plug-In . SVG Version: 6.00 Build 0)  -->

<svg
   xmlns:dc="http://purl.org/dc/elements/1.1/"
   xmlns:cc="http://creativecommons.org/ns#"
   xmlns:rdf="http://www.w3.org/1999/02/22-rdf-syntax-ns#"
   xmlns:svg="http://www.w3.org/2000/svg"
   xmlns="http://www.w3.org/2000/svg"
   xmlns:sodipodi="http://sodipodi.sourceforge.net/DTD/sodipodi-0.dtd"
   xmlns:inkscape="http://www.inkscape.org/namespaces/inkscape"
   version="1.1"
   id="Capa_1"
   x="0px"
   y="0px"
   width="886"
   height="1000"
   viewBox="0 0 885.99997 999.99997"
   xml:space="preserve"
   inkscape:version="0.48.4 r9943 custom"
   sodipodi:docname="phone-call.svg"
   inkscape:export-filename="/Users/carles/seafile/Cuantum Web/web/imatges/ico_phone.png"
   inkscape:export-xdpi="2.1600001"
   inkscape:export-ydpi="2.1600001"><metadata
   id="metadata4398"><rdf:RDF><cc:Work
       rdf:about=""><dc:format>image/svg+xml</dc:format><dc:type
         rdf:resource="http://purl.org/dc/dcmitype/StillImage" /><dc:title></dc:title></cc:Work></rdf:RDF></metadata><defs
   id="defs4396" /><sodipodi:namedview
   pagecolor="#ffffff"
   bordercolor="#666666"
   borderopacity="1"
   objecttolerance="10"
   gridtolerance="10"
   guidetolerance="10"
   inkscape:pageopacity="0"
   inkscape:pageshadow="2"
   inkscape:window-width="1322"
   inkscape:window-height="1191"
   id="namedview4394"
   showgrid="false"
   inkscape:zoom="0.56876102"
   inkscape:cx="472.07876"
   inkscape:cy="207.46851"
   inkscape:window-x="0"
   inkscape:window-y="23"
   inkscape:window-maximized="0"
   inkscape:current-layer="Capa_1" />
<g
   id="g4360"
   transform="matrix(1.900216,0,0,1.900216,48.765771,105.76663)"
   style="fill:#99999a;fill-opacity:1">
	<path
   d="m 159.138,256.452 c 37.217,36.944 80.295,72.236 97.207,55.195 24.215,-24.392 39.12,-45.614 92.854,-2.761 53.734,42.874 12.696,71.727 -10.757,95.363 C 311.378,431.518 210.01,406.16 109.533,306.445 9.062,206.71 -17.07,105.54 10.014,78.258 33.474,54.621 62.02,13.379 105.268,66.8 c 43.269,53.394 22.161,68.462 -2.054,92.861 -16.904,17.034 18.701,59.84 55.924,96.791 z M 213.104,80.203 c 0,0 -11.227,-1.754 -19.088,6.113 -8.092,8.092 -8.445,22.032 0.082,30.552 5.039,5.039 12.145,6.113 12.145,6.113 13.852,2.598 34.728,6.997 56.944,29.206 22.209,22.208 26.608,43.084 29.206,56.943 0,0 1.074,7.106 6.113,12.145 8.521,8.521 22.46,8.174 30.552,0.082 7.861,-7.86 6.113,-19.087 6.113,-19.087 C 330.772,174.213 317.172,144.905 293.82,121.554 270.462,98.203 241.153,84.609 213.104,80.203 z m 105.311,16.755 c 40.719,40.719 58.079,86.932 52.428,124.379 0,0 -1.972,11.859 5.773,19.604 8.718,8.718 22.535,8.215 30.695,0.062 5.243,-5.243 6.385,-13.777 6.385,-13.777 4.672,-32.361 -1.203,-97.464 -64.647,-160.901 C 285.605,2.887 220.509,-2.988 188.147,1.677 c 0,0 -8.527,1.136 -13.777,6.385 -8.16,8.16 -8.656,21.978 0.061,30.695 7.746,7.746 19.604,5.773 19.604,5.773 37.449,-5.651 83.661,11.71 124.38,52.428 z"
   id="path4362"
   inkscape:connector-curvature="0"
   style="fill:#99999a;fill-opacity:1" />
</g>
<g
   id="g4364"
   transform="translate(0,585.06297)">
</g>
<g
   id="g4366"
   transform="translate(0,585.06297)">
</g>
<g
   id="g4368"
   transform="translate(0,585.06297)">
</g>
<g
   id="g4370"
   transform="translate(0,585.06297)">
</g>
<g
   id="g4372"
   transform="translate(0,585.06297)">
</g>
<g
   id="g4374"
   transform="translate(0,585.06297)">
</g>
<g
   id="g4376"
   transform="translate(0,585.06297)">
</g>
<g
   id="g4378"
   transform="translate(0,585.06297)">
</g>
<g
   id="g4380"
   transform="translate(0,585.06297)">
</g>
<g
   id="g4382"
   transform="translate(0,585.06297)">
</g>
<g
   id="g4384"
   transform="translate(0,585.06297)">
</g>
<g
   id="g4386"
   transform="translate(0,585.06297)">
</g>
<g
   id="g4388"
   transform="translate(0,585.06297)">
</g>
<g
   id="g4390"
   transform="translate(0,585.06297)">
</g>
<g
   id="g4392"
   transform="translate(0,585.06297)">
</g>
</svg>