<?xml version="1.0" encoding="UTF-8" standalone="no"?>
<!-- Created with Inkscape (http://www.inkscape.org/) -->

<svg
   xmlns:dc="http://purl.org/dc/elements/1.1/"
   xmlns:cc="http://creativecommons.org/ns#"
   xmlns:rdf="http://www.w3.org/1999/02/22-rdf-syntax-ns#"
   xmlns:svg="http://www.w3.org/2000/svg"
   xmlns="http://www.w3.org/2000/svg"
   xmlns:xlink="http://www.w3.org/1999/xlink"
   xmlns:sodipodi="http://sodipodi.sourceforge.net/DTD/sodipodi-0.dtd"
   xmlns:inkscape="http://www.inkscape.org/namespaces/inkscape"
   id="svg2"
   version="1.1"
   inkscape:version="0.91 r13725"
   xml:space="preserve"
   width="521"
   height="521"
   viewBox="0 0 521 521"
   sodipodi:docname="simbol.svg"
   inkscape:export-filename="/home/carles/Seafile/Cuantum Web/web/imatges/favicon.png"
   inkscape:export-xdpi="2.7647207"
   inkscape:export-ydpi="2.7647207"><metadata
     id="metadata8"><rdf:RDF><cc:Work
         rdf:about=""><dc:format>image/svg+xml</dc:format><dc:type
           rdf:resource="http://purl.org/dc/dcmitype/StillImage" /><dc:title></dc:title></cc:Work></rdf:RDF></metadata><defs
     id="defs6"><clipPath
       clipPathUnits="userSpaceOnUse"
       id="clipPath28"><path
         d="m 261.269,568.793 c -2.211,-4.144 -0.506,-9.293 3.735,-11.311 l 0,0 C 383.402,501.124 333.655,427.164 326.18,417.17 l 0,0 c 62.796,81.786 -26.517,139.863 -53.664,154.953 l 0,0 c -1.262,0.702 -2.628,1.034 -3.975,1.034 l 0,0 c -2.939,0 -5.788,-1.583 -7.272,-4.364 m -58.089,-13.378 -0.318,-1.928 c -0.766,-4.645 2.516,-8.98 7.192,-9.519 l 0,0 C 356.357,527.111 330.147,430.787 325.822,417.545 l 0,0 C 363.248,527.437 245.563,556.337 212.755,562.18 l 0,0 c -0.491,0.087 -0.978,0.129 -1.458,0.129 l 0,0 c -3.955,0 -7.45,-2.853 -8.117,-6.894 m -52.818,-31.254 c -4.498,-0.845 -7.441,-5.19 -6.557,-9.681 l 0,0 0.782,-3.981 c 0.908,-4.618 5.503,-7.542 10.068,-6.397 l 0,0 c 159.793,40.063 169.959,-70.917 170.602,-86.319 l 0,0 c -2.755,93.439 -73.732,110.922 -126.47,110.919 l 0,0 c -20.684,-10e-4 -38.574,-2.691 -48.425,-4.541 m -51.22,-84.395 c -3.672,-2.709 -4.433,-7.885 -1.706,-11.542 l 0,0 3.713,-4.981 c 2.818,-3.78 8.236,-4.427 11.859,-1.41 l 0,0 C 253.3,538.62 316.429,432.815 324.424,417.762 l 0,0 c -27.258,52.892 -65.067,69.771 -102.263,69.768 l 0,0 C 168.96,487.527 117.033,452.967 99.142,439.766 m -8.769,-99.117 c -2.258,-3.949 -0.869,-8.981 3.086,-11.23 l 0,0 7.063,-4.017 c 4.098,-2.331 9.328,-0.755 11.429,3.466 l 0,0 c 88.392,177.577 197.196,99.996 211.721,88.505 l 0,0 c -30.808,25.004 -59.635,34.715 -85.866,34.713 l 0,0 C 159.929,452.08 105.089,366.394 90.373,340.649 m 30.089,-91.721 c -0.657,-4.502 2.459,-8.677 6.962,-9.334 l 0,0 9.768,-1.424 c 4.695,-0.684 8.974,2.732 9.393,7.457 l 0,0 c 18.793,211.943 157.633,176.905 176.578,171.106 l 0,0 c -20.059,6.413 -38.155,9.264 -54.508,9.262 l 0,0 C 153.605,425.979 125.686,284.724 120.462,248.928 M 325.3,416.043 c -0.031,0.067 -0.322,0.676 -0.876,1.719 l 0,0 c 0.292,-0.567 0.586,-1.144 0.876,-1.72 l 0,0 c 0,0 0,-0.003 0,-0.003 l 0,0 c -0.043,0.038 -0.601,0.521 -1.628,1.334 l 0,0 c 0.54,-0.438 1.087,-0.887 1.628,-1.334 l 0,0 c 0,0 0,-10e-4 0,-10e-4 l 0,0 c -0.042,0.015 -0.784,0.28 -2.137,0.695 l 0,0 c 0.711,-0.228 1.421,-0.458 2.137,-0.695 l 0,0 c 0,0 0,-0.002 0,-0.002 l 0,0 c 0,0 0,0 0,0 l 0,0 c -0.033,0.002 -0.827,0.049 -2.259,0.067 l 0,0 c 0.747,-0.019 1.505,-0.041 2.259,-0.067 l 0,0 c -0.053,-0.015 -0.815,-0.233 -2.155,-0.684 l 0,0 c 0.71,0.229 1.435,0.459 2.155,0.684 l 0,0 c 0,0 0,0 0,0 l 0,0 c 0,0 10e-4,-0.003 10e-4,-0.003 l 0,0 c 0,0 0,10e-4 0,0.002 l 0,0 c 0,0 0,0 0,10e-4 l 0,0 c 0,0 0,0 0,0 l 0,0 c 0,0 0,0 0,0 l 0,0 c 0,0 0,0 0.001,0 l 0,0 c 0,0 10e-4,10e-4 10e-4,10e-4 l 0,0 c 0,0 -10e-4,-10e-4 -10e-4,-10e-4 l 0,0 c 0,10e-4 0,10e-4 0,10e-4 l 0,0 c 0,0 10e-4,0 10e-4,0 l 0,0 c 0,0 0,0 -10e-4,0 l 0,0 c 10e-4,0 10e-4,0.001 10e-4,0.001 l 0,0 c 0,0 0,-0.001 0,-0.001 l 0,0 c 0,0 0,0 0,0.001 l 0,0 c 0.029,0.035 0.347,0.423 0.877,1.132 l 0,0 c -0.288,-0.376 -0.582,-0.755 -0.877,-1.132 l 0,0 c -10e-4,0 -10e-4,10e-4 -10e-4,10e-4 l 0,0 c 0.018,0.049 0.215,0.57 0.52,1.506 l 0,0 c -0.169,-0.498 -0.344,-1.003 -0.52,-1.505 l 0,0 c -0.001,0 -0.001,10e-4 -0.001,0.002 l 0,0 c 0,0.08 0,0.687 -0.044,1.741 l 0,0 c 0.017,-0.583 0.031,-1.152 0.043,-1.74 m 10e-4,-0.001 c 0,0 0.001,-0.003 0.001,-0.003 l 0,0 c 0,0 -0.001,-10e-4 -0.001,-10e-4 l 0,0 c 0,0 0,10e-4 0,10e-4 l 0,0 c 0,0.001 0,0.002 0,0.003 m 0.001,-0.003 c 0,0 10e-4,-10e-4 10e-4,-10e-4 l 0,0 c 0,0 -10e-4,-0.001 -10e-4,-0.001 l 0,0 c 0,0 0,0.001 0,0.001 l 0,0 c 0,0 0,0 0,0 l 0,0 c 0,0 0,0 0,0 l 0,0 c 0,0 0,0 -0.001,0 l 0,0 c 0.001,10e-4 0.001,10e-4 0.001,10e-4 m -0.001,0 c 0,0 0,-10e-4 0,-10e-4 l 0,0 c 0,0 0,0 0,0 l 0,0 c 0,0 0,0 0,0 l 0,0 c 0,0 0,10e-4 0,10e-4 m 0,-10e-4 c 0,0 0,0 0,0 l 0,0 c 0,0 0,-0.002 0,-0.002 l 0,0 c 0,0 0,0 0,0 l 0,0 c 0,10e-4 0,10e-4 0,0.002 m 0,0 c 0,0 0.001,0 0.001,0 l 0,0 c 0,0 0,0 -0.001,0 l 0,0 c 0,0 0,0 0,0 m 0,0 c 0,0 0.001,0 0.001,0 l 0,0 c 0,0 0,-0.001 0,-0.001 l 0,0 c 0,0 0,-10e-4 0,-10e-4 l 0,0 c -0.001,0 -0.001,0 -0.001,0 l 0,0 c 0,0 0,10e-4 0,0.002 m 0,-0.002 c 0,0 0,0 0,0 l 0,0 c 0,0 0,0 0,0 l 0,0 c 0,0 0,0 0,0 l 0,0 c 0,0 0,0 0,0 l 0,0 c 0,0 0,-10e-4 0,-10e-4 l 0,0 c 0,0 0,0 0,10e-4 l 0,0 c 0,0 0,0 0,0 l 0,0 c 0,0 0,0 0,0 l 0,0 c 0,0 0,0 0,0 l 0,0 c 0,0 0,0 0,0 l 0,0 c 0,0 0,0 0,0 l 0,0 c 0,0 0,0 0,0 l 0,0 c 0,0 0,0 0,0 l 0,0 c 0,0 0,0 0,0 l 0,0 c 0,0 0,0 0,0 l 0,0 c 0,0 0,0 0,0 l 0,0 c 0,0 0,0 0,0 M 175.566,198.174 c 0.632,-4.506 4.794,-7.639 9.299,-7.006 l 0,0 9.777,1.374 c 4.698,0.659 7.847,5.138 6.924,9.791 l 0,0 c -41.413,208.678 101.635,214.02 121.475,213.77 l 0,0 c -1.96,0.049 -3.872,0.073 -5.783,0.073 l 0,0 C 154.263,416.166 169.889,238.616 175.566,198.174 m 149.736,217.864 c 0,0 0,0 0,0 l 0,0 c 0,0 0,0 0,0 l 0,0 c 0,0 0,0 0,0 m 10e-4,-0.001 c 0,0 0,0 0,0 l 0,0 c 0,0 0,0 0,0 m -0.002,-10e-4 c 0,0 0,0 0,0 l 0,0 c 0,0 0,0 0,0 l 0,0 c 0,0 0,0 0,0 l 0,0 c 0,0 0,0 0,0 m 0,0 c 0,0 0,0 0,0 l 0,0 c 0,0 0,0 0,0 l 0,0 c 0,0 0,0 0,0 l 0,0 c 0,0 0,0 0,0 m 0.003,-10e-4 c 0,0 -0.202,-0.524 -0.525,-1.507 l 0,0 c 0.171,0.498 0.348,1.005 0.525,1.507 l 0,0 c 0,0 0,0 0,0 m -0.003,-0.002 c 0,0 0,10e-4 0,10e-4 l 0,0 c 0,0 0,0 0,-10e-4 l 0,0 c -0.053,-0.032 -0.685,-0.415 -1.775,-1.147 l 0,0 c 0.59,0.385 1.175,0.763 1.774,1.147 l 0,0 c 0,-0.001 -0.001,-0.002 -0.002,-0.004 l 0,0 c -0.045,-0.041 -0.549,-0.501 -1.404,-1.354 l 0,0 c 0.464,0.451 0.931,0.902 1.404,1.354 l 0,0 c -0.039,-0.057 -0.388,-0.566 -0.961,-1.484 l 0,0 c 0.318,0.497 0.635,0.985 0.961,1.484 l 0,0 c 0,0 0.003,0.003 0.003,0.003 l 0,0 c 0,0 -10e-4,-10e-4 -0.003,-0.002 l 0,0 c 0,0 0.002,0.003 0.002,0.003 l 0,0 c 0,0 0.004,0.002 0.004,0.002 l 0,0 c 0,0 -10e-4,-0.001 -0.003,-0.002 M 255.952,160.938 c 2.085,-4.044 7.049,-5.626 11.092,-3.54 l 0,0 8.774,4.526 c 4.216,2.175 5.708,7.443 3.3,11.53 l 0,0 c -108.016,183.254 25.19,235.569 44.027,241.898 l 0,0 C 162.072,363.469 237.014,197.66 255.952,160.938 m 69.269,8.366 c 3.07,-3.357 8.286,-3.574 11.636,-0.496 l 0,0 5.985,5.496 c 3.473,3.189 3.572,8.65 0.197,11.941 l 0,0 c -142.003,138.443 -34.93,218.301 -19.513,228.641 l 0,0 C 191.681,328.827 298.474,198.56 325.221,169.304 m 43.359,23.481 c 3.662,-2.721 8.834,-1.94 11.538,1.736 l 0,0 3.68,5.004 c 2.793,3.798 1.832,9.17 -2.11,11.755 l 0,0 C 229.115,311.361 311.777,402.579 323.894,414.675 l 0,0 C 220.301,313.82 338.258,215.319 368.58,192.785 m 40.145,35.27 c 4.19,-1.84 9.071,0.088 10.877,4.294 l 0,0 1.599,3.728 c 1.856,4.325 -0.288,9.332 -4.703,10.963 l 0,0 C 262.046,304.092 316.133,401.384 324.337,414.545 l 0,0 c -70.204,-109.553 51.812,-172.182 84.388,-186.49 m 28.741,41.541 c 4.52,-0.817 8.832,2.209 9.592,6.739 l 0,0 0.324,1.928 c 0.778,4.642 -2.493,8.986 -7.167,9.537 l 0,0 C 293.957,305.04 320.419,401.298 324.779,414.528 l 0,0 C 287.065,304.734 404.674,275.524 437.466,269.596"
         id="path30"
         inkscape:connector-curvature="0" /></clipPath><radialGradient
       fx="0"
       fy="0"
       cx="0"
       cy="0"
       r="1"
       gradientUnits="userSpaceOnUse"
       gradientTransform="matrix(170.14366,133.38597,133.38597,-170.14366,166.66362,371.18323)"
       spreadMethod="pad"
       id="radialGradient36"><stop
         style="stop-opacity:1;stop-color:#ec008c"
         offset="0"
         id="stop38" /><stop
         style="stop-opacity:1;stop-color:#ec008c"
         offset="0.26148"
         id="stop40" /><stop
         id="stop4316"
         offset="0.60510105"
         style="stop-color:#ffe680;stop-opacity:1" /><stop
         style="stop-opacity:1;stop-color:#00afb6"
         offset="0.800462"
         id="stop42" /><stop
         style="stop-opacity:1;stop-color:#00afb6"
         offset="1"
         id="stop44" /></radialGradient><radialGradient
       inkscape:collect="always"
       xlink:href="#radialGradient36-0"
       id="radialGradient4173-0"
       cx="-129.9474"
       cy="-202.88956"
       fx="-129.9474"
       fy="-202.88956"
       r="132.79922"
       gradientTransform="matrix(1.25,0,0,1.3596225,328.43329,456.41003)"
       gradientUnits="userSpaceOnUse" /><radialGradient
       fx="0"
       fy="0"
       cx="0"
       cy="0"
       r="1"
       gradientUnits="userSpaceOnUse"
       gradientTransform="matrix(170.14366,133.38597,133.38597,-170.14366,166.66362,371.18323)"
       spreadMethod="pad"
       id="radialGradient36-0"><stop
         style="stop-opacity:1;stop-color:#ec008c"
         offset="0"
         id="stop38-8" /><stop
         style="stop-opacity:1;stop-color:#ec008c"
         offset="0.26148"
         id="stop40-7" /><stop
         style="stop-opacity:1;stop-color:#00afb6"
         offset="0.800462"
         id="stop42-3" /><stop
         style="stop-opacity:1;stop-color:#00afb6"
         offset="1"
         id="stop44-6" /></radialGradient><radialGradient
       inkscape:collect="always"
       xlink:href="#radialGradient36"
       id="radialGradient4226"
       gradientUnits="userSpaceOnUse"
       gradientTransform="matrix(1.4798227,0.053429,-0.06523974,1.8069446,-56.785063,-237.80642)"
       cx="160.40952"
       cy="325.31"
       fx="160.40952"
       fy="325.31"
       r="132.79922" /><radialGradient
       inkscape:collect="always"
       xlink:href="#radialGradient36"
       id="radialGradient4171"
       gradientUnits="userSpaceOnUse"
       gradientTransform="matrix(1.4798227,0.053429,-0.06523974,1.8069446,-56.785063,-237.80642)"
       cx="160.40952"
       cy="325.31"
       fx="160.40952"
       fy="325.31"
       r="132.79922" /><radialGradient
       inkscape:collect="always"
       xlink:href="#radialGradient36"
       id="radialGradient4173"
       gradientUnits="userSpaceOnUse"
       gradientTransform="matrix(1.4798227,0.053429,-0.06523974,1.8069446,-56.785063,-237.80642)"
       cx="160.40952"
       cy="325.31"
       fx="160.40952"
       fy="325.31"
       r="132.79922" /><radialGradient
       inkscape:collect="always"
       xlink:href="#radialGradient36"
       id="radialGradient4175"
       gradientUnits="userSpaceOnUse"
       gradientTransform="matrix(1.4798227,0.053429,-0.06523974,1.8069446,-56.785063,-237.80642)"
       cx="160.40952"
       cy="325.31"
       fx="160.40952"
       fy="325.31"
       r="132.79922" /></defs><sodipodi:namedview
     pagecolor="#ffffff"
     bordercolor="#666666"
     borderopacity="1"
     objecttolerance="10"
     gridtolerance="10"
     guidetolerance="10"
     inkscape:pageopacity="0"
     inkscape:pageshadow="2"
     inkscape:window-width="1678"
     inkscape:window-height="1007"
     id="namedview4"
     showgrid="false"
     inkscape:zoom="0.32628588"
     inkscape:cx="639.55352"
     inkscape:cy="215.28802"
     inkscape:window-x="882"
     inkscape:window-y="24"
     inkscape:window-maximized="0"
     inkscape:current-layer="g10"
     showguides="true"
     inkscape:guide-bbox="true"
     fit-margin-top="0"
     fit-margin-left="0"
     fit-margin-right="0"
     fit-margin-bottom="0"><sodipodi:guide
       position="827.74783,123.14091"
       orientation="0,1"
       id="guide4342" /></sodipodi:namedview><g
     id="g10"
     inkscape:groupmode="layer"
     inkscape:label="CUANTUM NUEVOS 4"
     transform="matrix(1.25,0,0,-1.25,-111.61248,716.59798)"><g
       clip-path="url(#clipPath28)"
       id="g26"
       style="color:#000000;clip-rule:nonzero;display:inline;overflow:visible;visibility:visible;opacity:1;isolation:auto;mix-blend-mode:normal;color-interpolation:sRGB;color-interpolation-filters:linearRGB;solid-color:#000000;solid-opacity:1;fill:url(#radialGradient4226);fill-opacity:1;fill-rule:evenodd;stroke:none;stroke-width:0.80000001px;stroke-linecap:butt;stroke-linejoin:miter;stroke-miterlimit:4;stroke-dasharray:none;stroke-dashoffset:0;stroke-opacity:1;color-rendering:auto;image-rendering:auto;shape-rendering:auto;text-rendering:auto;enable-background:accumulate"
       transform="translate(29.296701,0)"><g
         id="g32"
         style="color:#000000;clip-rule:nonzero;display:inline;overflow:visible;visibility:visible;isolation:auto;mix-blend-mode:normal;color-interpolation:sRGB;color-interpolation-filters:linearRGB;solid-color:#000000;solid-opacity:1;fill:url(#radialGradient4175);fill-opacity:1;fill-rule:evenodd;stroke:none;stroke-width:0.80000001px;stroke-linecap:butt;stroke-linejoin:miter;stroke-miterlimit:4;stroke-dasharray:none;stroke-dashoffset:0;stroke-opacity:1;color-rendering:auto;image-rendering:auto;shape-rendering:auto;text-rendering:auto;enable-background:accumulate"><g
           id="g34"
           style="color:#000000;clip-rule:nonzero;display:inline;overflow:visible;visibility:visible;isolation:auto;mix-blend-mode:normal;color-interpolation:sRGB;color-interpolation-filters:linearRGB;solid-color:#000000;solid-opacity:1;fill:url(#radialGradient4173);fill-opacity:1;fill-rule:evenodd;stroke:none;stroke-width:0.80000001px;stroke-linecap:butt;stroke-linejoin:miter;stroke-miterlimit:4;stroke-dasharray:none;stroke-dashoffset:0;stroke-opacity:1;color-rendering:auto;image-rendering:auto;shape-rendering:auto;text-rendering:auto;enable-background:accumulate"><path
             inkscape:connector-curvature="0"
             id="path46"
             style="color:#000000;clip-rule:nonzero;display:inline;overflow:visible;visibility:visible;isolation:auto;mix-blend-mode:normal;color-interpolation:sRGB;color-interpolation-filters:linearRGB;solid-color:#000000;solid-opacity:1;fill:url(#radialGradient4171);fill-opacity:1;fill-rule:evenodd;stroke:none;stroke-width:0.80000001px;stroke-linecap:butt;stroke-linejoin:miter;stroke-miterlimit:4;stroke-dasharray:none;stroke-dashoffset:0;stroke-opacity:1;color-rendering:auto;image-rendering:auto;shape-rendering:auto;text-rendering:auto;enable-background:accumulate"
             d="m 261.269,568.793 c -2.211,-4.144 -0.506,-9.293 3.735,-11.311 l 0,0 C 383.402,501.124 333.655,427.164 326.18,417.17 l 0,0 c 62.796,81.786 -26.517,139.863 -53.664,154.953 l 0,0 c -1.262,0.702 -2.628,1.034 -3.975,1.034 l 0,0 c -2.939,0 -5.788,-1.583 -7.272,-4.364 m -58.089,-13.378 -0.318,-1.928 c -0.766,-4.645 2.516,-8.98 7.192,-9.519 l 0,0 C 356.357,527.111 330.147,430.787 325.822,417.545 l 0,0 C 363.248,527.437 245.563,556.337 212.755,562.18 l 0,0 c -0.491,0.087 -0.978,0.129 -1.458,0.129 l 0,0 c -3.955,0 -7.45,-2.853 -8.117,-6.894 m -52.818,-31.254 c -4.498,-0.845 -7.441,-5.19 -6.557,-9.681 l 0,0 0.782,-3.981 c 0.908,-4.618 5.503,-7.542 10.068,-6.397 l 0,0 c 159.793,40.063 169.959,-70.917 170.602,-86.319 l 0,0 c -2.755,93.439 -73.732,110.922 -126.47,110.919 l 0,0 c -20.684,-10e-4 -38.574,-2.691 -48.425,-4.541 m -51.22,-84.395 c -3.672,-2.709 -4.433,-7.885 -1.706,-11.542 l 0,0 3.713,-4.981 c 2.818,-3.78 8.236,-4.427 11.859,-1.41 l 0,0 C 253.3,538.62 316.429,432.815 324.424,417.762 l 0,0 c -27.258,52.892 -65.067,69.771 -102.263,69.768 l 0,0 C 168.96,487.527 117.033,452.967 99.142,439.766 m -8.769,-99.117 c -2.258,-3.949 -0.869,-8.981 3.086,-11.23 l 0,0 7.063,-4.017 c 4.098,-2.331 9.328,-0.755 11.429,3.466 l 0,0 c 88.392,177.577 197.196,99.996 211.721,88.505 l 0,0 c -30.808,25.004 -59.635,34.715 -85.866,34.713 l 0,0 C 159.929,452.08 105.089,366.394 90.373,340.649 m 30.089,-91.721 c -0.657,-4.502 2.459,-8.677 6.962,-9.334 l 0,0 9.768,-1.424 c 4.695,-0.684 8.974,2.732 9.393,7.457 l 0,0 c 18.793,211.943 157.633,176.905 176.578,171.106 l 0,0 c -20.059,6.413 -38.155,9.264 -54.508,9.262 l 0,0 C 153.605,425.979 125.686,284.724 120.462,248.928 M 325.3,416.043 c -0.031,0.067 -0.322,0.676 -0.876,1.719 l 0,0 c 0.292,-0.567 0.586,-1.144 0.876,-1.72 l 0,0 c 0,0 0,-0.003 0,-0.003 l 0,0 c -0.043,0.038 -0.601,0.521 -1.628,1.334 l 0,0 c 0.54,-0.438 1.087,-0.887 1.628,-1.334 l 0,0 c 0,0 0,-10e-4 0,-10e-4 l 0,0 c -0.042,0.015 -0.784,0.28 -2.137,0.695 l 0,0 c 0.711,-0.228 1.421,-0.458 2.137,-0.695 l 0,0 c 0,0 0,-0.002 0,-0.002 l 0,0 c 0,0 0,0 0,0 l 0,0 c -0.033,0.002 -0.827,0.049 -2.259,0.067 l 0,0 c 0.747,-0.019 1.505,-0.041 2.259,-0.067 l 0,0 c -0.053,-0.015 -0.815,-0.233 -2.155,-0.684 l 0,0 c 0.71,0.229 1.435,0.459 2.155,0.684 l 0,0 c 0,0 0,0 0,0 l 0,0 c 0,0 10e-4,-0.003 10e-4,-0.003 l 0,0 c 0,0 0,10e-4 0,0.002 l 0,0 c 0,0 0,0 0,10e-4 l 0,0 c 0,0 0,0 0,0 l 0,0 c 0,0 0,0 0,0 l 0,0 c 0,0 0,0 0.001,0 l 0,0 c 0,0 10e-4,10e-4 10e-4,10e-4 l 0,0 c 0,0 -10e-4,-10e-4 -10e-4,-10e-4 l 0,0 c 0,10e-4 0,10e-4 0,10e-4 l 0,0 c 0,0 10e-4,0 10e-4,0 l 0,0 c 0,0 0,0 -10e-4,0 l 0,0 c 10e-4,0 10e-4,0.001 10e-4,0.001 l 0,0 c 0,0 0,-0.001 0,-0.001 l 0,0 c 0,0 0,0 0,0.001 l 0,0 c 0.029,0.035 0.347,0.423 0.877,1.132 l 0,0 c -0.288,-0.376 -0.582,-0.755 -0.877,-1.132 l 0,0 c -10e-4,0 -10e-4,10e-4 -10e-4,10e-4 l 0,0 c 0.018,0.049 0.215,0.57 0.52,1.506 l 0,0 c -0.169,-0.498 -0.344,-1.003 -0.52,-1.505 l 0,0 c -0.001,0 -0.001,10e-4 -0.001,0.002 l 0,0 c 0,0.08 0,0.687 -0.044,1.741 l 0,0 c 0.017,-0.583 0.031,-1.152 0.043,-1.74 m 10e-4,-0.001 c 0,0 0.001,-0.003 0.001,-0.003 l 0,0 c 0,0 -0.001,-10e-4 -0.001,-10e-4 l 0,0 c 0,0 0,10e-4 0,10e-4 l 0,0 c 0,0.001 0,0.002 0,0.003 m 0.001,-0.003 c 0,0 10e-4,-10e-4 10e-4,-10e-4 l 0,0 c 0,0 -10e-4,-0.001 -10e-4,-0.001 l 0,0 c 0,0 0,0.001 0,0.001 l 0,0 c 0,0 0,0 0,0 l 0,0 c 0,0 0,0 0,0 l 0,0 c 0,0 0,0 -0.001,0 l 0,0 c 0.001,10e-4 0.001,10e-4 0.001,10e-4 m -0.001,0 c 0,0 0,-10e-4 0,-10e-4 l 0,0 c 0,0 0,0 0,0 l 0,0 c 0,0 0,0 0,0 l 0,0 c 0,0 0,10e-4 0,10e-4 m 0,-10e-4 c 0,0 0,0 0,0 l 0,0 c 0,0 0,-0.002 0,-0.002 l 0,0 c 0,0 0,0 0,0 l 0,0 c 0,10e-4 0,10e-4 0,0.002 m 0,0 c 0,0 0.001,0 0.001,0 l 0,0 c 0,0 0,0 -0.001,0 l 0,0 c 0,0 0,0 0,0 m 0,0 c 0,0 0.001,0 0.001,0 l 0,0 c 0,0 0,-0.001 0,-0.001 l 0,0 c 0,0 0,-10e-4 0,-10e-4 l 0,0 c -0.001,0 -0.001,0 -0.001,0 l 0,0 c 0,0 0,10e-4 0,0.002 m 0,-0.002 c 0,0 0,0 0,0 l 0,0 c 0,0 0,0 0,0 l 0,0 c 0,0 0,0 0,0 l 0,0 c 0,0 0,0 0,0 l 0,0 c 0,0 0,-10e-4 0,-10e-4 l 0,0 c 0,0 0,0 0,10e-4 l 0,0 c 0,0 0,0 0,0 l 0,0 c 0,0 0,0 0,0 l 0,0 c 0,0 0,0 0,0 l 0,0 c 0,0 0,0 0,0 l 0,0 c 0,0 0,0 0,0 l 0,0 c 0,0 0,0 0,0 l 0,0 c 0,0 0,0 0,0 l 0,0 c 0,0 0,0 0,0 l 0,0 c 0,0 0,0 0,0 l 0,0 c 0,0 0,0 0,0 l 0,0 c 0,0 0,0 0,0 M 175.566,198.174 c 0.632,-4.506 4.794,-7.639 9.299,-7.006 l 0,0 9.777,1.374 c 4.698,0.659 7.847,5.138 6.924,9.791 l 0,0 c -41.413,208.678 101.635,214.02 121.475,213.77 l 0,0 c -1.96,0.049 -3.872,0.073 -5.783,0.073 l 0,0 C 154.263,416.166 169.889,238.616 175.566,198.174 m 149.736,217.864 c 0,0 0,0 0,0 l 0,0 c 0,0 0,0 0,0 l 0,0 c 0,0 0,0 0,0 m 10e-4,-0.001 c 0,0 0,0 0,0 l 0,0 c 0,0 0,0 0,0 m -0.002,-10e-4 c 0,0 0,0 0,0 l 0,0 c 0,0 0,0 0,0 l 0,0 c 0,0 0,0 0,0 l 0,0 c 0,0 0,0 0,0 m 0,0 c 0,0 0,0 0,0 l 0,0 c 0,0 0,0 0,0 l 0,0 c 0,0 0,0 0,0 l 0,0 c 0,0 0,0 0,0 m 0.003,-10e-4 c 0,0 -0.202,-0.524 -0.525,-1.507 l 0,0 c 0.171,0.498 0.348,1.005 0.525,1.507 l 0,0 c 0,0 0,0 0,0 m -0.003,-0.002 c 0,0 0,10e-4 0,10e-4 l 0,0 c 0,0 0,0 0,-10e-4 l 0,0 c -0.053,-0.032 -0.685,-0.415 -1.775,-1.147 l 0,0 c 0.59,0.385 1.175,0.763 1.774,1.147 l 0,0 c 0,-0.001 -0.001,-0.002 -0.002,-0.004 l 0,0 c -0.045,-0.041 -0.549,-0.501 -1.404,-1.354 l 0,0 c 0.464,0.451 0.931,0.902 1.404,1.354 l 0,0 c -0.039,-0.057 -0.388,-0.566 -0.961,-1.484 l 0,0 c 0.318,0.497 0.635,0.985 0.961,1.484 l 0,0 c 0,0 0.003,0.003 0.003,0.003 l 0,0 c 0,0 -10e-4,-10e-4 -0.003,-0.002 l 0,0 c 0,0 0.002,0.003 0.002,0.003 l 0,0 c 0,0 0.004,0.002 0.004,0.002 l 0,0 c 0,0 -10e-4,-0.001 -0.003,-0.002 M 255.952,160.938 c 2.085,-4.044 7.049,-5.626 11.092,-3.54 l 0,0 8.774,4.526 c 4.216,2.175 5.708,7.443 3.3,11.53 l 0,0 c -108.016,183.254 25.19,235.569 44.027,241.898 l 0,0 C 162.072,363.469 237.014,197.66 255.952,160.938 m 69.269,8.366 c 3.07,-3.357 8.286,-3.574 11.636,-0.496 l 0,0 5.985,5.496 c 3.473,3.189 3.572,8.65 0.197,11.941 l 0,0 c -142.003,138.443 -34.93,218.301 -19.513,228.641 l 0,0 C 191.681,328.827 298.474,198.56 325.221,169.304 m 43.359,23.481 c 3.662,-2.721 8.834,-1.94 11.538,1.736 l 0,0 3.68,5.004 c 2.793,3.798 1.832,9.17 -2.11,11.755 l 0,0 C 229.115,311.361 311.777,402.579 323.894,414.675 l 0,0 C 220.301,313.82 338.258,215.319 368.58,192.785 m 40.145,35.27 c 4.19,-1.84 9.071,0.088 10.877,4.294 l 0,0 1.599,3.728 c 1.856,4.325 -0.288,9.332 -4.703,10.963 l 0,0 C 262.046,304.092 316.133,401.384 324.337,414.545 l 0,0 c -70.204,-109.553 51.812,-172.182 84.388,-186.49 m 28.741,41.541 c 4.52,-0.817 8.832,2.209 9.592,6.739 l 0,0 0.324,1.928 c 0.778,4.642 -2.493,8.986 -7.167,9.537 l 0,0 C 293.957,305.04 320.419,401.298 324.779,414.528 l 0,0 C 287.065,304.734 404.674,275.524 437.466,269.596" /></g></g></g></g></svg>